<svg xmlns="http://www.w3.org/2000/svg" viewBox="0 0 1200 240" width="100%" height="100%">
  <!-- Background -->
  <rect width="1200" height="240" fill="#0b0f19"/>
  
  <!-- Subtle Grid Pattern -->
  <defs>
    <pattern id="grid" width="40" height="40" patternUnits="userSpaceOnUse">
      <path d="M 40 0 L 0 0 0 40" fill="none" stroke="#1e293b" stroke-width="0.5"/>
    </pattern>
    <!-- Arvan-Inspired Gradient -->
    <linearGradient id="arvanBlue" x1="0%" y1="0%" x2="100%" y2="100%">
      <stop offset="0%" stop-color="#0052FF" />
      <stop offset="100%" stop-color="#00D4FF" />
    </linearGradient>
  </defs>
  
  <rect width="1200" height="240" fill="url(#grid)" opacity="0.3"/>

  <!-- Abstract Network (Scaled and recentered for the shorter height) -->
  <g transform="translate(720, -50) scale(0.75)" opacity="0.85">
    <!-- Connection Lines -->
    <path d="M200,200 L350,150 L450,250 L300,350 Z" fill="none" stroke="url(#arvanBlue)" stroke-width="1.5" opacity="0.4"/>
    <path d="M150,280 L250,120 L400,180 L350,320 Z" fill="none" stroke="url(#arvanBlue)" stroke-width="1" opacity="0.2"/>
    
    <!-- Signal Waves / Routing Paths -->
    <path d="M 100,220 Q 200,120 350,220 T 600,220" fill="none" stroke="url(#arvanBlue)" stroke-width="3" stroke-dasharray="8 4"/>
    <path d="M 120,260 Q 220,180 370,260 T 580,260" fill="none" stroke="#00D4FF" stroke-width="2" opacity="0.6"/>
    
    <!-- Nodes -->
    <circle cx="200" cy="200" r="6" fill="#0052FF" filter="drop-shadow(0 0 8px #0052FF)"/>
    <circle cx="350" cy="150" r="4" fill="#00D4FF" />
    <circle cx="450" cy="250" r="8" fill="#00D4FF" filter="drop-shadow(0 0 12px #00D4FF)"/>
    <circle cx="300" cy="350" r="5" fill="#0052FF" />
    <circle cx="250" cy="120" r="3" fill="#ffffff" opacity="0.7"/>
    <circle cx="400" cy="180" r="5" fill="#ffffff" opacity="0.6"/>
  </g>

  <!-- Branding Text Group (Centered Vertically) -->
  <g transform="translate(100, 150)">
    <!-- Project Name -->
    <text x="0" y="0" font-family="-apple-system, BlinkMacSystemFont, 'Segoe UI', Roboto, Helvetica, Arial, sans-serif" font-size="84" font-weight="800" fill="#ffffff" letter-spacing="-2">
      abrio<tspan fill="url(#arvanBlue)">.</tspan>
    </text>
  </g>
</svg>
